<svg width="226" height="45" viewBox="0 0 226 45" fill="none" xmlns="http://www.w3.org/2000/svg">
<path d="M0 5.95256C1.24569 4.69288 2.43858 3.47981 3.63923 2.2745C4.21237 1.69825 4.81037 1.1453 5.3773 0.562833C5.68018 0.250633 5.93957 0.188504 6.32477 0.458767C7.73821 1.44973 9.30232 2.08345 11.0016 2.43448C12.3731 2.71872 13.7073 2.58514 15.0338 2.26673C16.2375 1.97783 17.4195 1.59573 18.6217 1.29285C18.9401 1.21209 19.3098 1.20743 19.6313 1.27887C21.1597 1.62214 22.6726 2.03841 24.2056 2.36459C25.6687 2.67679 27.1303 2.45157 28.491 1.92657C29.7087 1.45594 30.841 0.760094 32.0013 0.145014C32.256 0.00988213 32.4238 -0.105057 32.6987 0.158993C34.4911 1.87221 36.3069 3.56058 38.1133 5.25981C38.2096 5.3499 38.2919 5.45552 38.3758 5.55027C37.9766 6.09856 37.5386 6.59404 37.2202 7.15787C35.9962 9.31841 35.7151 11.6716 35.83 14.1117C35.9574 16.819 36.7324 19.4036 37.2372 22.0394C37.7156 24.5323 38.1536 27.0253 37.9082 29.5835C37.6007 32.7878 36.2711 35.4159 33.6664 37.39C31.366 39.1327 28.7473 40.1361 26.0011 40.8988C24.9046 41.2032 23.8266 41.5853 22.7611 41.9907C21.6956 42.3976 20.8025 43.0826 20.0274 43.9167C19.8131 44.1466 19.6344 44.2367 19.3564 43.968C17.5003 42.1724 15.1596 41.4579 12.7101 40.8755C9.12991 40.0243 5.8355 38.5565 3.37828 35.6737C1.67905 33.6824 1.07794 31.2982 0.973878 28.7385C0.854279 25.8075 1.37151 22.9558 1.99125 20.1165C2.53022 17.6484 2.90921 15.1679 2.71816 12.6346C2.55041 10.4212 2.06114 8.31347 0.556058 6.56919C0.380542 6.36882 0.198814 6.17312 0 5.95256ZM5.95976 1.15306C5.80288 1.27887 5.62737 1.39537 5.47981 1.53982C4.15801 2.84919 2.85795 4.18032 1.51596 5.46795C1.14939 5.81898 1.09814 6.0706 1.40257 6.47755C3.07074 8.70799 3.50099 11.3003 3.51497 13.9921C3.52739 16.2474 3.04279 18.4468 2.6405 20.6524C2.09842 23.6175 1.48179 26.5748 1.75826 29.6223C1.96173 31.8652 2.70884 33.8797 4.25586 35.5541C6.68512 38.1837 9.85838 39.4574 13.2289 40.2775C15.4205 40.8102 17.5236 41.4517 19.3036 42.9009C19.4279 43.0018 19.7711 43.0205 19.883 42.9257C21.7111 41.3725 23.9058 40.6456 26.1798 40.0725C29.0191 39.358 31.6596 38.1977 33.8558 36.2391C34.721 35.4671 35.5178 34.5352 36.0785 33.5271C37.3102 31.3169 37.4438 28.8488 37.1518 26.404C36.88 24.1269 36.3845 21.8748 35.9574 19.6179C35.524 17.3207 34.9866 15.0436 35.086 12.6734C35.1854 10.3296 35.6623 8.10223 36.9949 6.13428C37.3009 5.68229 37.2108 5.44931 36.8645 5.12934C35.5846 3.94422 34.3249 2.74047 33.0544 1.54603C32.1706 0.715051 32.461 0.848628 31.5369 1.38139C29.7879 2.38788 27.9458 3.09461 25.8955 3.17693C23.9027 3.25614 22.0124 2.75134 20.1346 2.19994C19.4978 2.012 18.9215 1.93745 18.2754 2.1782C17.5329 2.45467 16.7625 2.6861 15.9843 2.82124C14.7309 3.03869 13.4588 3.30429 12.196 3.29031C10.0572 3.26701 8.1141 2.46555 6.29836 1.36586C6.19896 1.30683 6.10266 1.2447 5.95976 1.15306Z" fill="white"/>
<path d="M17.0618 12.109C17.0028 12.1525 16.9888 12.1711 16.9717 12.1742C14.878 12.6153 14.5347 12.9664 14.5005 15.1192C14.4726 16.879 14.5735 18.6403 14.603 20.4002C14.6124 20.9407 14.9727 20.964 15.3579 20.964C17.6474 20.964 19.9368 20.9609 22.2279 20.9578C22.6938 20.9578 23.1598 20.9391 23.6258 20.9531C23.9644 20.9624 24.1368 20.8459 24.1197 20.4871C24.0032 18.2085 23.8898 15.9315 23.7764 13.6529C23.7516 13.1605 23.5139 12.811 23.0557 12.6262C22.7699 12.5113 22.4795 12.401 22.1828 12.3156C21.5662 12.1385 21.2602 11.5389 21.5631 10.9798C21.6361 10.8447 21.9048 10.753 22.0865 10.7484C22.8818 10.7251 23.677 10.7375 24.4738 10.7406C26.5692 10.7452 28.666 10.7452 30.7613 10.767C31.058 10.7701 31.4945 10.5418 31.5581 11.1382C31.6482 11.9801 31.5737 12.1354 30.9508 12.2985C30.634 12.3824 30.3047 12.4647 30.0251 12.6247C29.4411 12.9586 29.0217 13.4587 29.0279 14.1593C29.0807 19.4434 29.1366 24.7275 29.2267 30.01C29.2469 31.2433 29.848 31.849 31.0782 32.1007C31.628 32.2141 31.9045 32.7406 31.6575 33.2656C31.6094 33.3681 31.4199 33.4629 31.2941 33.4629C28.2466 33.4784 25.2008 33.4862 22.1533 33.4675C22.0089 33.466 21.7495 33.2143 21.7479 33.0745C21.7401 32.7313 21.5274 32.2731 22.085 32.0991C22.4686 31.9795 22.8787 31.8832 23.2142 31.6766C23.764 31.338 24.1259 30.8317 24.1213 30.1482C24.1057 27.865 24.0716 25.5833 24.0669 23.3C24.0653 22.7983 23.8898 22.6477 23.385 22.6523C20.8424 22.6756 18.2997 22.6617 15.7571 22.6632C15.5831 22.6632 15.4076 22.671 15.2352 22.6927C14.8127 22.7455 14.6092 22.9273 14.6217 23.415C14.6714 25.3876 14.6729 27.3602 14.6962 29.3328C14.6978 29.5254 14.7351 29.718 14.749 29.9106C14.8407 31.119 15.4604 31.8677 16.6517 32.169C16.8568 32.2203 17.1301 32.4579 17.1643 32.6474C17.2901 33.3541 17.1969 33.4085 16.4514 33.4163C13.5996 33.4458 10.7464 33.4846 7.89461 33.5203C7.57465 33.525 7.20342 33.6244 7.20653 33.0854C7.20808 32.6505 7.06363 32.2513 7.72842 32.0727C9.5457 31.585 9.59696 31.0926 9.62336 29.1169C9.67151 25.4621 9.54881 21.8043 9.50066 18.148C9.48357 16.8898 9.45251 15.6317 9.46804 14.3736C9.48357 13.1931 8.59667 12.3528 7.56222 12.2565C6.95801 12.1991 7.0015 12.14 7.01704 11.1351C7.0248 10.6132 7.38049 10.6909 7.70512 10.6924C10.5972 10.708 13.4894 10.7406 16.3799 10.7251C16.9298 10.7219 17.1162 10.8819 17.0634 11.4038C17.0401 11.6461 17.0618 11.8962 17.0618 12.109Z" fill="white"/>
<path d="M63.655 20.1401H59.2439V20.6714C60.5621 20.8042 60.6973 20.8991 60.6973 22.4741V25.5481H54.9342V22.4741C54.9342 20.8991 55.0694 20.8042 56.3538 20.6714V20.1401H51.9766V20.6714C53.3624 20.8042 53.4976 20.8801 53.4976 22.4741V30.1402C53.4976 31.7341 53.3624 31.829 52.0104 31.9428V32.4742H56.4552V31.9428C55.0694 31.829 54.9342 31.7151 54.9342 30.1402V26.3451H60.6973V30.1402C60.6973 31.7341 60.5452 31.829 59.1087 31.9428V32.4742H63.6381V31.9428C62.2691 31.829 62.1339 31.7341 62.1339 30.1402V22.4741C62.1339 20.8991 62.2691 20.8042 63.655 20.6714V20.1401Z" fill="white"/>
<path d="M75.0209 32.4742V31.9428C73.9224 31.829 73.7027 31.6582 73.1619 30.0263C72.0802 26.7246 70.9479 23.1193 69.9 19.8555L69.3761 20.0262L65.8777 29.9884C65.2861 31.6582 65.0495 31.7721 63.9848 31.9428V32.4742H67.6522V31.9428C66.3847 31.81 66.2326 31.6203 66.6044 30.4248C66.8241 29.6278 67.0776 28.8309 67.348 27.977H70.9479C71.3197 29.1345 71.6577 30.1592 71.8774 30.8992C72.0971 31.6392 71.945 31.791 70.8803 31.9428V32.4742H75.0209ZM70.7113 27.161H67.6015C68.1086 25.605 68.6494 23.9542 69.1902 22.3223H69.224L70.7113 27.161Z" fill="white"/>
<path d="M81.6191 25.7758C82.5655 25.4912 83.9007 24.7511 83.9007 22.9485C83.9007 22.0756 83.5627 21.2407 82.9542 20.7853C82.4303 20.3678 81.6867 20.1401 80.4191 20.1401H76.0756V20.6714C77.4277 20.7853 77.4953 20.8991 77.4953 22.4741V30.1212C77.4953 31.7151 77.3939 31.829 75.9404 31.9428V32.4742H79.6755C81.0107 32.4742 82.1261 32.2465 82.988 31.7151C83.9852 31.089 84.6105 30.1212 84.6105 28.8498C84.6105 26.9523 83.2923 26.1174 81.6191 25.8327V25.7758ZM78.915 25.605V21.8858C78.915 21.2597 78.9826 21.0509 79.1347 20.9371C79.3037 20.8232 79.6755 20.7473 80.098 20.7473C81.7036 20.7473 82.3458 21.8858 82.3458 23.1762C82.3458 24.7701 81.5684 25.605 79.7093 25.605H78.915ZM78.915 26.2312H79.6924C81.7543 26.2312 82.9373 27.0851 82.9373 29.0396C82.9373 31.013 81.7036 31.81 80.3177 31.829C79.2361 31.829 78.915 31.4685 78.915 30.1022V26.2312Z" fill="white"/>
<path d="M90.3227 32.4742V31.9428C88.9368 31.829 88.8016 31.7341 88.8016 30.1022V22.512C88.8016 20.8991 88.9368 20.7853 90.3227 20.6714V20.1401H85.844V20.6714C87.2299 20.7853 87.3651 20.8991 87.3651 22.512V30.1022C87.3651 31.7151 87.2299 31.829 85.844 31.9428V32.4742H90.3227Z" fill="white"/>
<path d="M97.2489 25.7758C98.1954 25.4912 99.5305 24.7511 99.5305 22.9485C99.5305 22.0756 99.1925 21.2407 98.5841 20.7853C98.0602 20.3678 97.3165 20.1401 96.049 20.1401H91.7055V20.6714C93.0576 20.7853 93.1252 20.8991 93.1252 22.4741V30.1212C93.1252 31.7151 93.0238 31.829 91.5703 31.9428V32.4742H95.3054C96.6405 32.4742 97.756 32.2465 98.6179 31.7151C99.615 31.089 100.24 30.1212 100.24 28.8498C100.24 26.9523 98.9221 26.1174 97.2489 25.8327V25.7758ZM94.5448 25.605V21.8858C94.5448 21.2597 94.6124 21.0509 94.7645 20.9371C94.9335 20.8232 95.3053 20.7473 95.7279 20.7473C97.3334 20.7473 97.9757 21.8858 97.9757 23.1762C97.9757 24.7701 97.1982 25.605 95.3392 25.605H94.5448ZM94.5448 26.2312H95.3223C97.3841 26.2312 98.5672 27.0851 98.5672 29.0396C98.5672 31.013 97.3334 31.81 95.9476 31.829C94.8659 31.829 94.5448 31.4685 94.5448 30.1022V26.2312Z" fill="white"/>
<path d="M115.858 26.761H111.565V27.2733C113.221 27.4251 113.34 27.539 113.34 28.9052V30.5181C113.34 31.3151 113.137 31.5428 112.799 31.7515C112.427 31.9603 111.903 32.0931 111.329 32.0931C108.067 32.0931 106.63 28.9052 106.63 26.1727C106.63 22.6623 108.523 20.537 111.109 20.537C112.714 20.537 113.999 21.1632 114.404 23.4782L114.878 23.3644C114.742 22.112 114.658 21.0683 114.607 20.4042C114.066 20.2714 112.765 19.8539 111.362 19.8539C108.05 19.8539 104.906 21.9981 104.906 26.4004C104.906 30.1576 107.391 32.7572 111.109 32.7572C112.461 32.7572 113.847 32.3398 114.895 32.0551C114.793 31.5428 114.776 30.9356 114.776 30.2714V28.6585C114.776 27.539 114.844 27.4441 115.858 27.2733V26.761Z" fill="white"/>
<path d="M121.365 32.4726V31.9413C119.979 31.8274 119.844 31.7325 119.844 30.1007V22.5105C119.844 20.8975 119.979 20.7837 121.365 20.6698V20.1385H116.886V20.6698C118.272 20.7837 118.407 20.8975 118.407 22.5105V30.1007C118.407 31.7136 118.272 31.8274 116.886 31.9413V32.4726H121.365Z" fill="white"/>
<path d="M132.668 32.131C132.297 32.0172 131.908 31.8084 131.452 31.2392C131.029 30.7458 130.691 30.2525 130.083 29.2657C129.576 28.4118 128.866 27.1405 128.578 26.5143C129.829 25.9071 130.725 24.9014 130.725 23.2695C130.725 22.131 130.285 21.2771 129.609 20.7837C128.967 20.3093 128.139 20.1385 126.905 20.1385H122.714V20.6698C124.032 20.8027 124.167 20.8596 124.167 22.4725V30.1007C124.167 31.7136 124.015 31.8274 122.629 31.9413V32.4726H127.074V31.9413C125.722 31.8274 125.57 31.7136 125.57 30.1007V27.0836H126.111C126.99 27.0836 127.277 27.3113 127.564 27.8426C128.071 28.7724 128.68 29.9488 129.271 30.8786C130.032 32.1121 130.742 32.5295 132.009 32.6054C132.212 32.6244 132.398 32.6244 132.601 32.6244L132.668 32.131ZM125.57 26.4574V21.7894C125.57 21.2771 125.638 21.0494 125.756 20.9545C125.891 20.8406 126.179 20.7647 126.669 20.7647C127.953 20.7647 129.153 21.5237 129.153 23.5731C129.153 24.5978 128.883 25.3568 128.224 25.926C127.801 26.3056 127.243 26.4574 126.381 26.4574H125.57Z" fill="white"/>
<path d="M140.867 29.3796C140.613 30.2525 140.292 30.8597 140.005 31.2392C139.616 31.7325 139.042 31.8274 138.112 31.8274C137.402 31.8274 136.828 31.7895 136.49 31.5807C136.185 31.391 136.101 31.0115 136.101 29.9868V22.4915C136.101 20.8786 136.253 20.7837 137.588 20.6698V20.1385H133.177V20.6698C134.546 20.7837 134.664 20.8786 134.664 22.4915V30.0817C134.664 31.6946 134.529 31.8274 133.109 31.9413V32.4726H140.765C140.918 31.8843 141.272 30.0817 141.374 29.4934L140.867 29.3796Z" fill="white"/>
<path d="M148.507 22.9089C148.372 21.7135 148.288 20.9734 148.22 20.2903C147.578 20.0626 146.868 19.8539 146.091 19.8539C143.91 19.8539 142.609 21.4099 142.609 23.2315C142.609 25.3758 144.316 26.3245 145.398 26.9697C146.665 27.7287 147.595 28.3929 147.595 29.797C147.595 31.1823 146.834 32.0741 145.567 32.0741C143.826 32.0741 143.065 30.1576 142.795 29.0001L142.305 29.1329C142.406 30.0437 142.626 31.6756 142.761 32.0741C142.913 32.169 143.167 32.3018 143.589 32.4726C144.012 32.6054 144.553 32.7572 145.246 32.7572C147.493 32.7572 148.998 31.1633 148.998 29.1709C148.998 27.0456 147.392 26.1538 146.074 25.3947C144.739 24.6167 143.927 23.9716 143.927 22.5864C143.927 21.5617 144.502 20.4991 145.803 20.4991C147.274 20.4991 147.713 21.8084 148.017 23.0228L148.507 22.9089Z" fill="white"/>
<path d="M150.723 19C150.436 19 150.013 19.2277 150.013 19.74C150.013 19.9677 150.115 20.1006 150.233 20.1196C150.791 20.2334 151.281 20.6319 151.281 21.296C151.281 22.074 150.791 22.5105 149.98 22.89L150.149 23.4023C151.213 23.0987 152.312 22.2638 152.312 20.9355C152.312 19.7211 151.45 19 150.74 19H150.723Z" fill="white"/>
<path d="M162.913 22.9105C162.778 21.7151 162.694 20.975 162.626 20.2919C161.984 20.0642 161.274 19.8555 160.497 19.8555C158.317 19.8555 157.015 21.4115 157.015 23.2331C157.015 25.3773 158.722 26.3261 159.804 26.9713C161.071 27.7303 162.001 28.3944 162.001 29.7986C162.001 31.1838 161.24 32.0757 159.973 32.0757C158.232 32.0757 157.471 30.1592 157.201 29.0016L156.711 29.1345C156.812 30.0453 157.032 31.6772 157.167 32.0757C157.319 32.1706 157.573 32.3034 157.995 32.4742C158.418 32.607 158.959 32.7588 159.652 32.7588C161.899 32.7588 163.404 31.1649 163.404 29.1724C163.404 27.0472 161.798 26.1553 160.48 25.3963C159.145 24.6183 158.333 23.9731 158.333 22.5879C158.333 21.5633 158.908 20.5006 160.209 20.5006C161.68 20.5006 162.119 21.8099 162.423 23.0244L162.913 22.9105Z" fill="white"/>
<path d="M174.383 29.1345C173.538 31.032 172.625 32.0757 170.901 32.0757C168.332 32.0757 166.473 29.6468 166.473 26.0984C166.473 23.2141 167.978 20.5386 170.8 20.5386C172.625 20.5386 173.639 21.3545 174.079 23.3659L174.586 23.2331C174.484 22.2084 174.383 21.4494 174.248 20.3678C173.774 20.2729 172.625 19.8555 171.256 19.8555C167.487 19.8555 164.749 22.4931 164.749 26.4779C164.749 29.495 166.592 32.7588 170.8 32.7588C172.017 32.7588 173.436 32.3793 173.91 32.2465C174.214 31.6203 174.636 30.2161 174.873 29.3432L174.383 29.1345Z" fill="white"/>
<path d="M187.566 20.1401H183.155V20.6714C184.473 20.8042 184.608 20.8991 184.608 22.4741V25.5481H178.845V22.4741C178.845 20.8991 178.981 20.8042 180.265 20.6714V20.1401H175.888V20.6714C177.274 20.8042 177.409 20.8801 177.409 22.4741V30.1402C177.409 31.7341 177.274 31.829 175.921 31.9428V32.4742H180.366V31.9428C178.981 31.829 178.845 31.7151 178.845 30.1402V26.3451H184.608V30.1402C184.608 31.7341 184.456 31.829 183.02 31.9428V32.4742H187.549V31.9428C186.18 31.829 186.045 31.7341 186.045 30.1402V22.4741C186.045 20.8991 186.18 20.8042 187.566 20.6714V20.1401Z" fill="white"/>
<path d="M194.409 19.8555C190.86 19.8555 188.731 23.0244 188.731 26.44C188.731 30.0833 191.164 32.7588 194.223 32.7588C197.316 32.7588 199.868 30.254 199.868 26.1553C199.868 22.3602 197.282 19.8555 194.426 19.8555H194.409ZM194.071 20.5386C196.285 20.5386 198.144 22.6638 198.144 26.6677C198.144 30.311 196.454 32.0757 194.578 32.0757C192.195 32.0757 190.455 29.476 190.455 25.9086C190.455 22.3602 192.178 20.5386 194.054 20.5386H194.071Z" fill="white"/>
<path d="M207.332 19.8555C203.783 19.8555 201.654 23.0244 201.654 26.44C201.654 30.0833 204.087 32.7588 207.146 32.7588C210.239 32.7588 212.791 30.254 212.791 26.1553C212.791 22.3602 210.206 19.8555 207.349 19.8555H207.332ZM206.994 20.5386C209.208 20.5386 211.067 22.6638 211.067 26.6677C211.067 30.311 209.377 32.0757 207.501 32.0757C205.118 32.0757 203.378 29.476 203.378 25.9086C203.378 22.3602 205.101 20.5386 206.977 20.5386H206.994Z" fill="white"/>
<path d="M221.753 29.3812C221.5 30.254 221.179 30.8612 220.892 31.2408C220.503 31.7341 219.928 31.829 218.999 31.829C218.289 31.829 217.714 31.791 217.376 31.5823C217.072 31.3926 216.987 31.013 216.987 29.9884V22.4931C216.987 20.8801 217.14 20.7853 218.475 20.6714V20.1401H214.064V20.6714C215.433 20.7853 215.551 20.8801 215.551 22.4931V30.0832C215.551 31.6962 215.416 31.829 213.996 31.9428V32.4742H221.652C221.804 31.8859 222.159 30.0832 222.26 29.495L221.753 29.3812Z" fill="white"/>
</svg>
